<svg width="25" height="24" viewBox="0 0 25 24" fill="none" xmlns="http://www.w3.org/2000/svg">
<path d="M12.1051 24C15.3155 24 18.3945 22.7357 20.6647 20.4853C22.9348 18.2348 24.2102 15.1826 24.2102 12C24.2102 8.8174 22.9348 5.76516 20.6647 3.51472C18.3945 1.26428 15.3155 0 12.1051 0C8.89461 0 5.81564 1.26428 3.5455 3.51472C1.27535 5.76516 0 8.8174 0 12C0 15.1826 1.27535 18.2348 3.5455 20.4853C5.81564 22.7357 8.89461 24 12.1051 24ZM17.4483 9.79688L11.3958 15.7969C10.9513 16.2375 10.2326 16.2375 9.79282 15.7969L6.76655 12.7969C6.32207 12.3562 6.32207 11.6438 6.76655 11.2078C7.21103 10.7719 7.92977 10.7672 8.36953 11.2078L10.5919 13.4109L15.8406 8.20312C16.2851 7.7625 17.0039 7.7625 17.4436 8.20312C17.8834 8.64375 17.8881 9.35625 17.4436 9.79219L17.4483 9.79688Z" fill="#1E88E5"/>
</svg>
